# Blender v2.80 (sub 75) OBJ File: ''
# www.blender.org
mtllib Particle.mtl
o Icosphere
v -0.697547 -0.000000 0.000000
v -0.311953 -0.504745 0.366715
v -0.311953 0.192794 0.593359
v -0.311953 0.623900 0.000000
v -0.311953 0.192794 -0.593359
v -0.311953 -0.504745 -0.366715
v 0.311953 -0.192794 0.593359
v 0.311953 0.504745 0.366715
v 0.311953 0.504745 -0.366715
v 0.311953 -0.192794 -0.593359
v 0.311953 -0.623900 -0.000000
v 0.697547 0.000000 0.000000
v -0.574192 0.109659 0.337496
v -0.574192 -0.287094 0.208584
v -0.354870 -0.177434 0.546080
v -0.354870 -0.574187 0.000000
v -0.574192 -0.287094 -0.208584
v -0.574192 0.354867 0.000000
v -0.354870 0.464526 0.337496
v -0.574192 0.109659 -0.337496
v -0.354870 0.464526 -0.337496
v -0.354870 -0.177434 -0.546080
v -0.000000 -0.641961 0.208584
v -0.000000 -0.641961 -0.208584
v 0.000000 -0.000000 0.674993
v -0.000000 -0.396752 0.546080
v 0.000000 0.641961 0.208584
v 0.000000 0.396752 0.546080
v 0.000000 0.396752 -0.546080
v 0.000000 0.641961 -0.208584
v -0.000000 -0.396752 -0.546080
v -0.000000 0.000000 -0.674993
v 0.354870 -0.464526 0.337496
v 0.354870 0.177434 0.546080
v 0.354870 0.574187 0.000000
v 0.354870 0.177434 -0.546080
v 0.354870 -0.464526 -0.337496
v 0.574192 -0.109659 0.337496
v 0.574192 -0.354867 0.000000
v 0.574192 0.287094 0.208584
v 0.574192 0.287094 -0.208584
v 0.574192 -0.109659 -0.337496
vt 0.051756 0.000076
vt 0.200558 0.000076
vt 0.126157 0.088744
vt 0.525657 0.999924
vt 0.376855 0.999924
vt 0.451257 0.911257
vt 0.025916 0.146618
vt 0.228054 0.999924
vt 0.114065 0.904274
vt 0.228055 0.884176
vt 0.302456 0.911257
vt 0.551498 0.853383
vt 0.200558 0.177412
vt 0.274958 0.088744
vt 0.274959 0.204493
vt 0.000076 0.293160
vt 0.100317 0.235286
vt 0.114066 0.313261
vt 0.228056 0.768429
vt 0.114066 0.788527
vt 0.188468 0.659661
vt 0.376858 0.822590
vt 0.302457 0.795510
vt 0.363109 0.744615
vt 0.349359 0.000076
vt 0.463349 0.095725
vt 0.349360 0.115825
vt 0.214307 0.255386
vt 0.074478 0.422027
vt 0.288708 0.717535
vt 0.477098 0.764716
vt 0.349360 0.231574
vt 0.463350 0.211473
vt 0.388949 0.340341
vt 0.228056 0.333361
vt 0.288708 0.282467
vt 0.328296 0.391234
vt 0.148881 0.550893
vt 0.188468 0.442127
vt 0.288709 0.500000
vt 0.349360 0.666641
vt 0.249121 0.608767
vt 0.388949 0.557874
vt 0.577339 0.706841
vt 0.463350 0.686741
vt 0.502938 0.577974
vt 0.428537 0.449107
vt 0.502938 0.320240
vt 0.577339 0.191373
vt 0.074479 0.679759
vt 0.000077 0.808625
vn -1.0000 0.0000 0.0000
vn -0.8506 -0.4253 0.3090
vn -0.8506 0.1625 0.5000
vn -0.4472 -0.7236 0.5257
vn -0.5257 -0.8506 0.0000
vn -0.8506 0.5257 0.0000
vn -0.8506 0.1625 -0.5000
vn -0.8506 -0.4253 -0.3090
vn 0.0000 -0.9510 0.3090
vn -0.4472 0.2764 0.8506
vn -0.5257 -0.2629 0.8090
vn 0.0000 0.0000 1.0000
vn -0.4472 0.8944 0.0000
vn -0.5257 0.6882 0.5000
vn 0.0000 0.9510 0.3090
vn -0.4472 0.2764 -0.8506
vn -0.5257 0.6882 -0.5000
vn 0.0000 0.5878 -0.8090
vn -0.4472 -0.7236 -0.5257
vn -0.5257 -0.2629 -0.8090
vn 0.0000 -0.5878 -0.8090
vn 0.0000 -0.5878 0.8090
vn 0.0000 0.5878 0.8090
vn 0.0000 0.9510 -0.3090
vn 0.0000 0.0000 -1.0000
vn 0.0000 -0.9510 -0.3090
vn 0.4472 -0.2764 0.8506
vn 0.5257 -0.6882 0.5000
vn 0.8506 -0.1625 0.5000
vn 0.4472 0.7236 0.5257
vn 0.5257 0.2629 0.8090
vn 0.8506 0.4253 0.3090
vn 0.4472 0.7236 -0.5257
vn 0.5257 0.8506 0.0000
vn 0.8506 0.4253 -0.3090
vn 0.4472 -0.2764 -0.8506
vn 0.5257 0.2629 -0.8090
vn 0.8506 -0.1625 -0.5000
vn 0.4472 -0.8944 0.0000
vn 0.5257 -0.6882 -0.5000
vn 0.8506 -0.5257 0.0000
vn 1.0000 0.0000 0.0000
usemtl None
s 1
f 1/1/1 14/2/2 13/3/3
f 2/4/4 14/5/2 16/6/5
f 1/1/1 13/3/3 18/7/6
f 1/8/1 18/9/6 20/10/7
f 1/8/1 20/10/7 17/11/8
f 2/4/4 16/6/5 23/12/9
f 3/13/10 15/14/11 25/15/12
f 4/16/13 19/17/14 27/18/15
f 5/19/16 21/20/17 29/21/18
f 6/22/19 22/23/20 31/24/21
f 2/25/4 23/26/9 26/27/22
f 3/13/10 25/15/12 28/28/23
f 4/16/13 27/18/15 30/29/24
f 5/19/16 29/21/18 32/30/25
f 6/22/19 31/24/21 24/31/26
f 7/32/27 33/33/28 38/34/29
f 8/35/30 34/36/31 40/37/32
f 9/38/33 35/39/34 41/40/35
f 10/41/36 36/42/37 42/43/38
f 11/44/39 37/45/40 39/46/41
f 39/46/41 42/43/38 12/47/42
f 39/46/41 37/45/40 42/43/38
f 37/45/40 10/41/36 42/43/38
f 42/43/38 41/40/35 12/47/42
f 42/43/38 36/42/37 41/40/35
f 36/42/37 9/38/33 41/40/35
f 41/40/35 40/37/32 12/47/42
f 41/40/35 35/39/34 40/37/32
f 35/39/34 8/35/30 40/37/32
f 40/37/32 38/34/29 12/47/42
f 40/37/32 34/36/31 38/34/29
f 34/36/31 7/32/27 38/34/29
f 38/34/29 39/48/41 12/47/42
f 38/34/29 33/33/28 39/48/41
f 33/33/28 11/49/39 39/48/41
f 24/31/26 37/45/40 11/44/39
f 24/31/26 31/24/21 37/45/40
f 31/24/21 10/41/36 37/45/40
f 32/30/25 36/42/37 10/41/36
f 32/30/25 29/21/18 36/42/37
f 29/21/18 9/38/33 36/42/37
f 30/29/24 35/39/34 9/38/33
f 30/29/24 27/18/15 35/39/34
f 27/18/15 8/35/30 35/39/34
f 28/28/23 34/36/31 8/35/30
f 28/28/23 25/15/12 34/36/31
f 25/15/12 7/32/27 34/36/31
f 26/27/22 33/33/28 7/32/27
f 26/27/22 23/26/9 33/33/28
f 23/26/9 11/49/39 33/33/28
f 31/24/21 32/30/25 10/41/36
f 31/24/21 22/23/20 32/30/25
f 22/23/20 5/19/16 32/30/25
f 29/21/18 30/50/24 9/38/33
f 29/21/18 21/20/17 30/50/24
f 21/20/17 4/51/13 30/50/24
f 27/18/15 28/28/23 8/35/30
f 27/18/15 19/17/14 28/28/23
f 19/17/14 3/13/10 28/28/23
f 25/15/12 26/27/22 7/32/27
f 25/15/12 15/14/11 26/27/22
f 15/14/11 2/25/4 26/27/22
f 23/12/9 24/31/26 11/44/39
f 23/12/9 16/6/5 24/31/26
f 16/6/5 6/22/19 24/31/26
f 17/11/8 22/23/20 6/22/19
f 17/11/8 20/10/7 22/23/20
f 20/10/7 5/19/16 22/23/20
f 20/10/7 21/20/17 5/19/16
f 20/10/7 18/9/6 21/20/17
f 18/9/6 4/51/13 21/20/17
f 18/7/6 19/17/14 4/16/13
f 18/7/6 13/3/3 19/17/14
f 13/3/3 3/13/10 19/17/14
f 16/6/5 17/11/8 6/22/19
f 16/6/5 14/5/2 17/11/8
f 14/5/2 1/8/1 17/11/8
f 13/3/3 15/14/11 3/13/10
f 13/3/3 14/2/2 15/14/11
f 14/2/2 2/25/4 15/14/11
