# Blender v2.80 (sub 75) OBJ File: 'cave.blend'
# www.blender.org
mtllib cave.mtl
o Plane
v -0.500000 0.000000 0.500000
v 0.485803 0.065521 0.469219
v -0.500000 0.000000 -0.500000
v 0.432859 0.109045 -0.501977
v 0.777140 0.269347 0.491299
v 0.797045 0.650161 0.458480
v 0.703680 1.159150 0.535460
v 0.331011 1.428150 0.735269
v -0.261064 1.572258 0.551562
v -0.605660 1.329489 0.649996
v -0.849459 1.081488 0.466625
v -0.851281 0.796662 0.448214
v -0.905343 0.403927 0.434182
v -0.788312 0.107894 0.486746
v 0.614643 0.468470 -0.330416
v 0.611590 0.969564 -0.229597
v 0.235119 1.401967 0.041212
v -0.362424 1.418452 -0.204536
v -0.785548 1.397092 -0.095961
v -1.010792 0.852371 -0.075606
v -0.978753 0.414849 -0.218444
v -0.849998 0.031615 -0.290994
v -0.124383 1.133168 0.920142
v -0.449266 0.914024 0.924054
v -0.418169 0.530266 1.011523
v -0.323938 0.200944 0.738882
v -0.788312 0.107894 0.486746
v -0.418169 0.530266 1.011523
v -0.002790 0.481454 0.880696
v 0.277147 0.965796 0.947367
v -0.603858 0.029087 -1.208663
v 0.433655 0.050231 -1.083175
v 0.692301 0.394555 -0.990457
v 0.571842 0.925109 -0.781765
v 0.267239 1.225164 -0.587265
v -0.595650 1.404118 -1.043613
v -1.017265 1.134283 -0.934042
v -1.186280 0.819262 -0.765194
v -1.094064 0.248673 -0.931800
v -0.795605 0.198901 -0.986457
v -0.570955 0.020263 -2.021448
v 0.561236 0.037063 -1.867784
v 0.795273 0.569543 -1.460443
v 0.755050 1.003220 -1.323257
v 0.359574 1.328658 -1.267332
v -0.325068 1.521392 -1.512076
v -0.996269 1.273709 -1.623209
v -1.197382 0.821105 -1.761029
v -1.165736 0.397691 -1.783014
v -0.790372 0.661590 -1.962166
v 0.584463 1.247721 -1.627247
v 0.848795 0.630096 -1.786690
v -0.621655 -0.024959 -2.654902
v 0.770873 0.037044 -2.246715
v -0.029825 1.561971 -2.117797
v -0.839045 1.380870 -2.118095
v -1.187799 0.838771 -2.312943
v -1.059130 0.394160 -2.497268
v -0.770452 0.222349 -2.609353
v 0.496919 1.156057 -2.183009
v 0.872401 0.692843 -2.243789
v -0.719965 0.137376 -1.138793
v -0.946543 0.379649 -1.881569
v -0.649620 0.167431 -2.008545
v -0.587407 -0.011414 -1.615056
v -0.786016 0.253820 -1.593205
v -0.717601 0.207834 -1.668994
v -0.980671 0.298296 -1.384735
v -0.701662 -0.014367 -3.072767
v 0.848150 0.041614 -2.872199
v -0.596305 -0.020374 -2.338175
v -1.145181 0.384021 -2.122865
v -0.813383 0.234643 -2.211981
v -0.960794 0.359765 -2.028167
v -0.713430 0.194207 -2.164214
v -0.866422 0.429011 -1.975121
v -0.736108 0.384549 -1.957013
v -0.741421 0.363581 -2.078265
v -0.795071 0.401022 -1.865152
v -0.776454 0.346020 -1.720210
v -0.841206 0.401886 -2.067700
v -0.911701 0.306645 -2.153644
v -0.866280 0.341872 -1.719851
v -0.669595 0.150921 -1.843669
v -0.796273 0.529196 -1.806248
v -0.750523 0.366289 -1.819181
v -0.836744 0.407175 -1.813368
v 0.004002 1.758523 -2.592415
v -0.747236 1.514432 -2.670317
v -1.007562 0.893024 -2.887919
v -1.092016 0.567145 -2.976038
v -0.875867 0.191871 -3.172429
v 0.534846 1.148307 -2.705116
v 0.915745 0.490470 -2.653649
v -0.678547 0.001856 -3.591527
v 0.783954 0.011243 -3.436233
v 0.282248 1.597757 -3.178858
v -0.547534 1.589869 -3.370750
v -0.896829 1.246276 -3.301888
v -1.016996 0.768026 -3.427303
v -0.937725 0.379402 -3.643273
v 0.777630 1.174844 -3.108775
v 1.073524 0.543715 -3.206805
v -0.278144 0.128466 -4.392076
v 1.051415 0.011243 -3.763350
v 0.492909 1.597757 -3.685749
v -0.353474 1.676038 -4.063909
v -0.694290 1.341876 -4.111584
v -0.707263 0.808722 -4.381013
v -0.491404 0.357781 -4.557380
v 0.916082 1.329592 -3.599085
v 1.176317 0.710022 -3.528038
v 0.789762 -0.050859 -5.275785
v 1.389989 0.035244 -3.907166
v 0.923227 1.822651 -4.348907
v 0.506044 1.980484 -4.957332
v 0.177636 1.568867 -5.455080
v 0.223128 1.038620 -5.629262
v 0.423427 0.424867 -5.450666
v 1.201324 1.270596 -3.850102
v 1.343497 0.639272 -3.790389
v -0.190586 1.591206 -4.782084
v -0.051957 0.031155 -4.815523
v -0.322140 1.044033 -5.034623
v 0.074640 1.907266 -4.567395
v -0.252906 0.402830 -5.035933
vt 1.000000 0.000000
vt 0.000000 1.000000
vt 0.000000 0.000000
vt 1.000000 1.000000
vt 0.000000 0.000000
vt 0.000000 0.000000
vt 0.000000 0.000000
vt 0.000000 0.000000
vt 0.000000 0.000000
vt 0.000000 0.000000
vt 0.000000 0.000000
vt 0.000000 0.000000
vt 0.000000 0.000000
vt 0.000000 0.000000
vt 0.000000 0.000000
vt 0.000000 0.000000
vt 0.000000 0.000000
vt 0.000000 0.000000
vt 0.000000 0.000000
vt 0.000000 0.000000
vt 0.000000 0.000000
vt 0.000000 0.000000
vt 0.000000 0.000000
vt 0.000000 0.000000
vt 0.000000 0.000000
vt 0.000000 0.000000
vt 0.000000 0.000000
vt 0.000000 0.000000
vt 0.000000 0.000000
vt 0.000000 0.000000
vt 0.000000 0.000000
vt 0.000000 0.000000
vt 0.000000 0.000000
vt 0.000000 0.000000
vt 0.000000 0.000000
vt 1.000000 1.000000
vt 0.000000 1.000000
vt 0.000000 0.000000
vt 0.000000 0.000000
vt 0.000000 0.000000
vt 0.000000 0.500000
vt 0.000000 0.000000
vt 0.000000 0.000000
vt 0.000000 0.000000
vt 0.000000 0.000000
vt 0.000000 0.500000
vt 0.000000 0.000000
vt 0.000000 0.000000
vt 0.000000 1.000000
vt 1.000000 1.000000
vt 0.000000 0.000000
vt 0.000000 1.000000
vt 0.000000 0.000000
vt 0.000000 0.000000
vt 0.000000 0.000000
vt 0.000000 0.000000
vt 0.000000 0.000000
vt 0.000000 0.000000
vt 0.000000 1.000000
vt 0.000000 1.000000
vt 0.000000 0.000000
vt 0.000000 0.000000
vt 0.000000 0.000000
vt 1.000000 1.000000
vt 0.000000 0.000000
vt 0.000000 0.250000
vt 0.000000 0.000000
vt 0.000000 0.000000
vt 0.000000 0.000000
vt 0.000000 0.250000
vt 0.000000 0.500000
vt 0.000000 0.500000
vt 0.000000 0.500000
vt 0.000000 0.500000
vt 0.000000 0.000000
vt 0.000000 0.000000
vt 0.000000 0.000000
vt 0.000000 0.000000
vt 0.000000 0.000000
vt 0.000000 0.000000
vt 0.000000 0.000000
vt 0.000000 0.000000
vt 0.000000 0.000000
vt 0.000000 0.000000
vt 0.000000 0.250000
vt 0.000000 0.125000
vt 0.000000 0.500000
vt 0.000000 0.250000
vt 0.000000 0.000000
vt 0.000000 0.000000
vt 0.000000 0.250000
vt 0.000000 0.125000
vt 0.000000 0.000000
vt 1.000000 1.000000
vt 0.000000 0.000000
vt 0.000000 0.000000
vt 0.000000 0.000000
vt 0.000000 0.000000
vt 0.000000 1.000000
vt 0.000000 0.000000
vt 0.000000 0.000000
vt 0.000000 1.000000
vt 0.000000 0.500000
vt 0.000000 0.000000
vt 0.000000 0.000000
vt 1.000000 1.000000
vt 0.000000 0.000000
vt 0.000000 0.000000
vt 0.000000 0.000000
vt 0.000000 0.000000
vt 0.000000 0.000000
vt 0.000000 0.000000
vt 0.000000 0.000000
vt 0.000000 0.500000
vt 0.000000 1.000000
vt 0.000000 0.000000
vt 1.000000 1.000000
vt 0.000000 0.000000
vt 0.000000 0.000000
vt 0.000000 0.000000
vt 0.000000 0.000000
vt 0.000000 0.500000
vt 1.000000 1.000000
vt 0.000000 1.000000
vt 0.000000 1.000000
vt 0.000000 0.000000
vt 0.000000 0.000000
vt 0.000000 0.000000
vt 0.000000 0.000000
vt 0.000000 0.000000
vt 0.000000 0.000000
vt 0.000000 0.000000
vt 0.000000 0.000000
vt 0.000000 0.000000
vt 0.000000 0.500000
vt 0.000000 0.000000
vn -0.0663 0.9978 0.0000
vn -0.1158 0.9920 0.0508
vn -0.5754 0.8151 0.0679
vn -0.9060 0.3340 0.2601
vn -0.9753 0.0690 0.2096
vn -0.9701 -0.0535 0.2366
vn -0.9651 -0.2022 0.1663
vn -0.6438 -0.7210 0.2562
vn -0.5438 -0.8325 0.1065
vn -0.2569 -0.9638 0.0718
vn -0.1143 -0.9704 0.2127
vn 0.5899 -0.8031 0.0843
vn 0.0255 -0.9950 -0.0963
vn 0.7751 -0.5846 -0.2399
vn 0.9169 -0.3833 -0.1109
vn 0.9569 0.0126 -0.2901
vn 0.9491 0.1584 -0.2722
vn 0.9849 -0.1315 -0.1130
vn 0.9313 0.3506 -0.0989
vn 0.9362 0.3348 -0.1071
vn 0.3528 0.9281 -0.1190
vn 0.0900 0.9959 0.0000
vn 0.1956 -0.5941 -0.7803
vn 0.5211 0.1133 -0.8460
vn 0.4340 -0.6544 -0.6192
vn 0.7588 0.0372 -0.6503
vn 0.7713 -0.0836 -0.6310
vn 0.7704 -0.0817 -0.6322
vn 0.7337 0.1734 -0.6570
vn 0.0000 0.0000 1.0000
vn 0.2693 0.6300 -0.7284
vn 0.2527 0.6589 -0.7085
vn -0.1762 0.5973 -0.7824
vn -0.1650 0.5889 -0.7912
vn -0.2795 0.4890 -0.8263
vn -0.4575 -0.0526 -0.8877
vn -0.0468 0.0516 -0.9976
vn 0.0890 -0.6240 -0.7764
vn -0.1069 -0.4042 -0.9084
vn -0.6007 -0.2745 -0.7509
vn -0.6905 -0.0173 -0.7231
vn 0.1001 0.0787 -0.9919
vn -0.4928 0.3918 -0.7770
vn 0.2311 0.9417 0.2446
vn -0.6621 -0.7417 0.1074
vn 0.9091 0.3486 -0.2282
vn 0.0511 -0.9987 0.0028
vn -0.0258 0.9987 0.0448
vn -0.9782 -0.1850 -0.0944
vn 0.9561 0.1518 -0.2506
vn -0.1341 -0.9557 0.2620
vn -0.7898 0.6102 -0.0628
vn 0.9142 -0.3830 -0.1327
vn -0.0715 0.7886 -0.6107
vn -0.3170 -0.2351 -0.9188
vn 0.5925 0.8050 -0.0309
vn -0.6914 -0.7039 0.1627
vn 0.2028 0.9483 0.2440
vn 0.5553 -0.8250 0.1052
vn -0.1157 0.9882 -0.1002
vn -0.9971 -0.0209 0.0735
vn 0.9552 0.2140 -0.2043
vn -0.2450 -0.9658 0.0846
vn -0.8493 0.5042 -0.1564
vn 0.8220 -0.5392 -0.1833
vn 0.3506 -0.9360 -0.0318
vn -0.9750 -0.0204 -0.2212
vn 0.7092 0.6985 0.0960
vn 0.9184 -0.3924 -0.0514
vn -0.6292 -0.7104 -0.3154
vn -0.0082 0.9950 -0.0995
vn 0.9866 0.1626 -0.0107
vn -0.2084 -0.9623 -0.1747
vn -0.8588 0.4906 -0.1479
vn 0.1899 0.9697 0.1538
vn 0.5032 -0.8499 -0.1566
vn -0.9402 -0.0836 -0.3302
vn 0.8614 0.5077 -0.0157
vn 0.8787 -0.4772 -0.0107
vn -0.7491 -0.6322 -0.1979
vn -0.0123 0.9997 -0.0188
vn 0.9945 0.0780 -0.0701
vn -0.0552 -0.9606 -0.2724
vn -0.8045 0.5924 0.0443
vn 0.3130 0.9454 0.0905
vn -0.2835 -0.9582 0.0384
vn -0.6374 -0.7345 -0.2331
vn -0.8918 -0.4230 0.1602
vn -0.9849 -0.0380 -0.1686
vn -0.8944 0.4425 -0.0646
vn 0.8768 -0.4451 0.1822
vn -0.2596 -0.9455 0.1968
vn -0.9968 -0.0000 0.0798
vn -0.7787 -0.6149 -0.1246
vn 0.9971 0.0735 0.0197
vn 0.2182 -0.9750 0.0410
vn -0.8668 0.1363 -0.4796
vn 0.0433 0.3688 -0.9285
vn 0.8414 -0.5404 -0.0027
vn -0.5999 -0.7238 -0.3409
vn -0.0138 0.9999 -0.0077
vn -0.8783 -0.4299 0.2093
vn 0.9917 0.1161 0.0553
vn -0.8905 0.3097 -0.3333
vn 0.3576 -0.9297 -0.0877
vn -0.9004 0.4348 0.0132
vn 0.9788 0.1903 -0.0758
vn 0.8482 0.5242 -0.0755
vn 0.8695 0.4763 -0.1307
vn 0.8270 0.5314 -0.1836
vn 0.6352 0.7685 -0.0768
vn 0.5197 0.8538 0.0297
vn 0.2037 -0.9096 -0.3622
vn 0.0658 0.9972 -0.0361
vn 0.2048 0.9671 -0.1511
vn 0.1045 0.9932 0.0509
vn 0.1565 0.9729 0.1701
vn 0.1209 0.9783 0.1685
vn -0.0159 0.4237 0.9057
vn 0.7910 0.3540 -0.4991
vn 0.8511 0.5211 0.0641
vn 0.8822 0.4653 0.0720
vn 0.7150 0.6952 0.0742
vn 0.6322 0.7677 0.1048
vn 0.6591 0.7492 -0.0658
vn -0.0981 0.9925 0.0734
vn -0.0241 0.9973 -0.0693
vn 0.9569 0.1837 0.2249
vn 0.7757 0.4816 0.4080
vn 0.9313 0.3332 0.1474
vn 0.8426 0.1745 0.5095
vn 0.7915 0.4341 0.4302
vn 0.9305 0.3359 0.1464
vn -0.2015 0.9269 0.3165
vn -0.7298 0.6469 0.2212
vn -0.7898 0.2265 0.5701
vn 0.9766 0.2007 -0.0775
vn 0.8657 0.4122 -0.2839
vn -0.3314 0.8153 -0.4748
vn -0.5557 0.7448 -0.3696
vn 0.0330 0.6560 -0.7540
vn 0.1759 0.6596 -0.7307
vn 0.5269 0.4523 -0.7196
vn -0.5701 0.8197 -0.0558
vn 0.7736 0.5962 -0.2146
vn 0.5753 0.8170 -0.0388
vn 0.3704 0.9288 0.0113
vn 0.4825 0.8323 0.2729
vn 0.7759 0.6114 0.1552
vn -0.9450 0.3179 -0.0765
vn 0.8267 0.4679 0.3124
vn -0.0351 0.8100 0.5854
vn 0.7848 0.2649 -0.5604
vn 0.9268 0.2371 0.2914
vn 0.2479 0.9651 0.0848
vn -0.7317 0.2790 -0.6220
vn -0.9717 0.2041 -0.1186
vn 0.5645 0.7880 0.2459
vn 0.8396 -0.5431 0.0082
vn -0.6126 -0.7897 -0.0328
vn 0.9403 0.1443 0.3084
vn -0.0403 0.9986 0.0330
vn -0.8607 -0.4867 0.1493
vn 0.7882 0.6002 -0.1357
vn 0.3205 -0.9315 -0.1720
vn -0.9724 0.1513 -0.1776
vn 0.8080 0.5604 -0.1816
vn 0.8664 -0.4434 0.2297
vn -0.7466 -0.5942 -0.2993
vn 0.9668 -0.2119 -0.1430
vn -0.0450 0.9990 0.0017
vn -0.7790 -0.6252 -0.0473
vn 0.8759 -0.4379 0.2026
vn 0.8104 0.5730 0.1218
vn -0.8206 -0.4972 -0.2819
vn 0.9650 -0.2599 0.0363
vn -0.8894 0.4505 0.0770
vn 0.2531 -0.8957 0.3656
vn -0.0097 0.9995 0.0308
vn -0.5660 -0.7273 -0.3882
vn 0.8857 0.3513 0.3036
vn 0.5899 -0.6853 -0.4270
vn 0.7498 0.6595 0.0540
vn -0.8085 -0.3005 -0.5060
vn 0.9658 -0.2550 0.0470
vn -0.9352 0.2586 -0.2419
vn 0.0321 -0.9947 -0.0980
vn -0.0295 0.9983 -0.0504
vn -0.7579 -0.6245 -0.1884
vn 0.9745 0.2210 -0.0400
vn 0.0087 -1.0000 0.0036
vn -0.8001 -0.3885 -0.4571
vn 0.7484 0.5620 0.3521
vn -0.0218 0.9891 0.1455
vn 0.9365 -0.2878 0.2003
vn -0.7304 0.3316 -0.5972
vn 0.6889 -0.7174 0.1037
vn -0.4381 -0.8143 -0.3807
vn 0.9506 0.0218 0.3097
vn -0.0325 -0.9907 -0.1323
vn -0.8663 -0.3510 -0.3554
vn 0.5230 0.7619 0.3821
vn 0.0634 0.9966 0.0518
vn 0.9389 -0.1732 0.2975
vn -0.8732 0.4867 -0.0274
vn 0.7075 -0.7004 0.0943
vn -0.6074 -0.7533 -0.2524
vn 0.8717 0.2531 0.4196
vn -0.8200 -0.3922 -0.4168
vn 0.5498 0.7604 0.3456
vn 0.0506 0.9951 -0.0848
vn 0.8149 -0.2771 0.5091
vn -0.3955 0.1449 -0.9070
vn 0.6606 -0.7133 0.2341
vn -0.5506 -0.6951 -0.4623
vn 0.8184 0.1781 0.5463
vn -0.0389 -0.9734 -0.2258
vn -0.6698 -0.2180 -0.7099
vn 0.7985 -0.3997 0.4502
vn 0.7352 0.0780 0.6734
vn 0.4132 0.5771 0.7044
vn 0.5200 -0.7336 0.4376
vn 0.7671 0.5788 0.2767
vn 0.1537 0.9778 -0.1426
vn -0.0434 0.9970 0.0643
vn 0.8516 -0.3742 0.3671
vn -0.7547 0.3265 -0.5690
vn 0.6637 -0.7103 0.2344
vn -0.3835 -0.7700 -0.5100
vn 0.8874 0.0949 0.4512
vn -0.0100 -0.9450 -0.3270
vn 0.0759 -0.9290 -0.3621
vn 0.7272 -0.1571 0.6682
vn 0.4733 0.3850 0.7923
vn 0.4220 0.6203 0.6612
vn 0.5221 -0.7938 0.3120
usemtl None
s off
f 2/1/1 3/2/1 1/3/1
f 2/1/2 4/4/2 3/2/2
f 4/4/3 2/1/3 5/5/3
f 5/5/4 15/6/4 4/4/4
f 6/7/5 15/6/5 5/5/5
f 15/6/6 6/7/6 16/8/6
f 7/9/7 16/8/7 6/7/7
f 16/8/8 7/9/8 17/10/8
f 8/11/9 17/10/9 7/9/9
f 9/12/10 17/10/10 8/11/10
f 17/10/11 9/12/11 18/13/11
f 10/14/12 18/13/12 9/12/12
f 18/13/13 10/14/13 19/15/13
f 11/16/14 19/15/14 10/14/14
f 19/15/15 11/16/15 20/17/15
f 12/18/16 20/17/16 11/16/16
f 20/17/17 12/18/17 21/19/17
f 13/20/18 21/19/18 12/18/18
f 14/21/19 21/19/19 13/20/19
f 21/19/20 14/21/20 22/22/20
f 14/21/21 1/3/21 22/22/21
f 1/3/22 3/2/22 22/22/22
f 10/14/23 9/12/23 23/23/23
f 11/16/24 10/14/24 23/23/24
f 23/23/25 24/24/25 11/16/25
f 12/18/26 11/16/26 24/24/26
f 13/20/27 12/18/27 24/24/27
f 24/24/28 25/25/28 13/20/28
f 14/21/29 13/20/29 25/25/29
f 14/21/30 28/26/30 27/27/30
f 1/3/31 27/27/31 26/28/31
f 27/27/32 28/26/32 26/28/32
f 28/26/33 29/29/33 26/28/33
f 2/1/34 26/28/34 29/29/34
f 5/5/35 2/1/35 29/29/35
f 6/7/36 5/5/36 29/29/36
f 24/24/30 28/26/30 25/25/30
f 24/24/37 23/23/37 29/29/37
f 9/12/38 8/11/38 23/23/38
f 23/23/39 8/11/39 30/30/39
f 8/11/40 7/9/40 30/30/40
f 7/9/41 6/7/41 30/30/41
f 29/29/42 23/23/42 30/30/42
f 29/29/43 30/30/43 6/7/43
f 3/2/44 40/31/44 22/22/44
f 16/8/45 35/32/45 34/33/45
f 22/22/46 39/34/46 21/19/46
f 19/15/47 36/35/47 18/13/47
f 3/2/48 32/36/48 31/37/48
f 15/6/49 34/33/49 33/38/49
f 21/19/50 38/39/50 20/17/50
f 18/13/51 35/32/51 17/10/51
f 4/4/52 33/38/52 32/36/52
f 20/17/53 37/40/53 19/15/53
f 14/21/30 25/25/30 28/26/30
f 1/3/30 14/21/30 27/27/30
f 2/1/54 1/3/54 26/28/54
f 24/24/55 29/29/55 28/26/55
f 3/2/56 62/41/56 40/31/56
f 16/8/57 17/10/57 35/32/57
f 22/22/58 40/31/58 39/34/58
f 19/15/59 37/40/59 36/35/59
f 3/2/60 4/4/60 32/36/60
f 15/6/61 16/8/61 34/33/61
f 21/19/62 39/34/62 38/39/62
f 18/13/63 36/35/63 35/32/63
f 4/4/64 15/6/64 33/38/64
f 20/17/65 38/39/65 37/40/65
f 36/35/66 47/42/66 46/43/66
f 33/38/67 44/44/67 43/45/67
f 31/37/68 67/46/68 62/41/68
f 37/40/69 48/47/69 47/42/69
f 34/33/70 45/48/70 44/44/70
f 32/36/71 65/49/71 31/37/71
f 39/34/72 48/47/72 38/39/72
f 35/32/73 46/43/73 45/48/73
f 32/36/74 43/45/74 42/50/74
f 68/51/75 39/34/75 40/31/75
f 36/35/76 37/40/76 47/42/76
f 33/38/77 34/33/77 44/44/77
f 31/37/78 65/49/78 67/46/78
f 37/40/79 38/39/79 48/47/79
f 34/33/80 35/32/80 45/48/80
f 32/36/81 42/50/81 41/52/81
f 39/34/82 49/53/82 48/47/82
f 35/32/83 36/35/83 46/43/83
f 32/36/84 33/38/84 43/45/84
f 40/31/85 66/54/85 68/51/85
f 46/43/86 51/55/86 45/48/86
f 45/48/87 51/55/87 44/44/87
f 51/55/88 52/56/88 44/44/88
f 44/44/89 52/56/89 43/45/89
f 43/45/90 52/56/90 42/50/90
f 48/47/91 56/57/91 47/42/91
f 46/43/92 60/58/92 51/55/92
f 41/52/93 53/59/93 71/60/93
f 52/56/94 60/58/94 61/61/94
f 49/53/95 57/62/95 48/47/95
f 46/43/96 56/57/96 55/63/96
f 42/50/97 61/61/97 54/64/97
f 50/65/98 78/66/98 81/67/98
f 48/47/99 57/62/99 56/57/99
f 46/43/100 55/63/100 60/58/100
f 41/52/101 42/50/101 54/64/101
f 52/56/102 51/55/102 60/58/102
f 72/68/103 57/62/103 49/53/103
f 50/65/104 81/67/104 76/69/104
f 46/43/105 47/42/105 56/57/105
f 42/50/106 52/56/106 61/61/106
f 50/65/107 77/70/107 78/66/107
f 75/71/108 71/60/108 53/59/108
f 64/72/109 41/52/109 71/60/109
f 53/59/110 92/73/110 59/74/110
f 82/75/111 58/76/111 74/77/111
f 73/78/112 59/79/112 58/76/112
f 56/57/113 88/80/113 55/63/113
f 75/71/108 53/59/108 59/74/108
f 63/81/114 72/68/114 49/53/114
f 74/77/115 72/68/115 63/81/115
f 74/77/116 58/76/116 72/68/116
f 68/51/117 63/81/117 49/53/117
f 68/51/118 83/82/118 63/81/118
f 83/82/119 80/83/119 85/84/119
f 79/85/120 86/86/120 84/87/120
f 65/49/121 84/87/121 67/46/121
f 65/49/122 41/52/122 64/72/122
f 62/41/123 66/54/123 40/31/123
f 62/41/124 67/88/124 66/54/124
f 3/2/125 31/37/125 62/41/125
f 32/36/126 41/52/126 65/49/126
f 68/51/75 49/53/75 39/34/75
f 41/52/127 54/64/127 53/59/127
f 72/68/128 58/76/128 57/62/128
f 67/88/129 80/83/129 66/54/129
f 84/87/130 86/86/130 67/46/130
f 79/85/131 77/70/131 50/65/131
f 79/85/132 84/87/132 77/70/132
f 84/87/133 64/72/133 77/70/133
f 83/82/134 76/69/134 63/81/134
f 87/89/135 76/69/135 83/82/135
f 79/90/136 50/65/136 76/69/136
f 78/66/137 77/70/137 75/71/137
f 77/70/138 64/72/138 75/71/138
f 76/69/139 82/75/139 74/77/139
f 76/69/140 81/67/140 82/75/140
f 81/67/141 73/78/141 82/75/141
f 81/67/142 78/66/142 73/91/142
f 78/66/143 75/71/143 73/91/143
f 76/69/144 74/77/144 63/81/144
f 75/71/145 64/72/145 71/60/145
f 82/75/146 73/78/146 58/76/146
f 73/91/147 75/71/147 59/74/147
f 68/51/148 66/54/148 83/82/148
f 65/49/149 64/72/149 84/87/149
f 85/84/150 87/89/150 83/82/150
f 86/86/151 80/92/151 67/88/151
f 83/82/152 66/54/152 80/83/152
f 86/86/153 79/90/153 85/84/153
f 86/86/154 85/84/154 80/92/154
f 87/89/155 79/90/155 76/69/155
f 85/84/156 79/90/156 87/89/156
f 54/64/157 94/93/157 70/94/157
f 59/79/158 91/95/158 58/76/158
f 57/62/159 89/96/159 56/57/159
f 55/63/160 93/97/160 60/58/160
f 58/76/161 90/98/161 57/62/161
f 53/59/162 70/94/162 69/99/162
f 61/61/163 93/97/163 94/93/163
f 53/59/164 69/99/164 92/73/164
f 56/57/165 89/96/165 88/80/165
f 54/64/166 61/61/166 94/93/166
f 59/79/167 92/100/167 91/95/167
f 57/62/168 90/98/168 89/96/168
f 55/63/169 88/80/169 93/97/169
f 58/76/170 91/95/170 90/98/170
f 53/59/171 54/64/171 70/94/171
f 61/61/172 60/58/172 93/97/172
f 90/98/173 98/101/173 89/96/173
f 92/73/174 95/102/174 101/103/174
f 93/97/175 103/104/175 94/93/175
f 91/95/176 99/105/176 90/98/176
f 70/94/177 103/104/177 96/106/177
f 89/96/178 97/107/178 88/80/178
f 69/99/179 96/106/179 95/102/179
f 93/97/180 97/107/180 102/108/180
f 92/100/181 100/109/181 91/95/181
f 90/98/182 99/105/182 98/101/182
f 92/73/183 69/99/183 95/102/183
f 93/97/184 102/108/184 103/104/184
f 91/95/185 100/109/185 99/105/185
f 70/94/186 94/93/186 103/104/186
f 89/96/187 98/101/187 97/107/187
f 69/99/188 70/94/188 96/106/188
f 93/97/189 88/80/189 97/107/189
f 92/100/190 101/110/190 100/109/190
f 98/101/191 106/111/191 97/107/191
f 103/104/192 111/112/192 112/113/192
f 95/102/193 110/114/193 101/103/193
f 96/106/194 104/115/194 95/102/194
f 100/109/195 108/116/195 99/105/195
f 96/106/196 112/113/196 105/117/196
f 98/101/197 108/116/197 107/118/197
f 102/108/198 106/111/198 111/112/198
f 101/110/199 109/119/199 100/109/199
f 98/101/200 107/118/200 106/111/200
f 103/104/201 102/108/201 111/112/201
f 95/102/202 104/115/202 110/114/202
f 96/106/203 105/117/203 104/115/203
f 100/109/204 109/119/204 108/116/204
f 96/106/205 103/104/205 112/113/205
f 98/101/206 99/105/206 108/116/206
f 102/108/207 97/107/207 106/111/207
f 101/110/208 110/120/208 109/119/208
f 111/112/209 121/121/209 112/113/209
f 104/115/210 126/122/210 110/114/210
f 114/123/211 113/124/211 123/125/211
f 109/119/212 122/126/212 108/116/212
f 105/117/213 121/121/213 114/123/213
f 107/118/214 122/126/214 125/127/214
f 111/112/215 115/128/215 120/129/215
f 110/120/216 124/130/216 109/119/216
f 125/127/217 116/131/217 115/128/217
f 111/112/218 120/129/218 121/121/218
f 124/130/219 117/132/219 122/126/219
f 126/133/220 118/134/220 124/130/220
f 126/122/221 113/124/221 119/135/221
f 122/126/222 116/131/222 125/127/222
f 104/115/223 123/125/223 126/122/223
f 123/125/224 104/115/224 105/117/224
f 105/117/225 114/123/225 123/125/225
f 109/119/226 124/130/226 122/126/226
f 105/117/227 112/113/227 121/121/227
f 107/118/228 108/116/228 122/126/228
f 111/112/229 106/111/229 115/128/229
f 110/120/230 126/133/230 124/130/230
f 115/128/231 106/111/231 125/127/231
f 106/111/232 107/118/232 125/127/232
f 124/130/233 118/134/233 117/132/233
f 126/133/234 119/136/234 118/134/234
f 126/122/235 123/125/235 113/124/235
f 122/126/236 117/132/236 116/131/236
